<svg width="89" height="27" viewBox="0 0 89 27" fill="none" xmlns="http://www.w3.org/2000/svg">
<path d="M5.05872 13.4783C5.05872 17.1361 5.73729 19.9973 7.09501 22.0618C8.45244 24.1266 10.3545 25.1582 12.8006 25.1582C15.3361 25.1582 17.3501 24.0981 18.8426 21.9777C20.3348 19.8568 21.0811 17.0241 21.0811 13.4783C21.0811 9.82064 20.391 6.95405 19.011 4.87799C17.631 2.8025 15.7064 1.76433 13.2383 1.76433C10.7245 1.76433 8.73306 2.82478 7.26338 4.94511C5.79342 7.06601 5.05872 9.91033 5.05872 13.4783ZM21.4514 21.9944C20.3069 23.0943 18.9884 23.9466 17.4962 24.5524C16.0036 25.1582 14.4609 25.4614 12.868 25.4614C9.59129 25.4614 6.80903 24.3059 4.52003 21.9944C2.23104 19.6834 1.08655 16.8441 1.08655 13.4783C1.08655 11.8403 1.38973 10.2863 1.99554 8.81632C2.60135 7.34692 3.46523 6.06169 4.58744 4.96232C5.73194 3.84039 7.04481 2.97623 8.52577 2.37042C10.0067 1.76433 11.5435 1.46143 13.1373 1.46143C16.458 1.46143 19.2744 2.61749 21.5859 4.92848C23.8969 7.24003 25.053 10.09 25.053 13.4783C25.053 15.0938 24.7442 16.6371 24.1273 18.1065C23.51 19.5765 22.6179 20.8724 21.4514 21.9944Z" fill="#332D2B"/>
<path d="M35.3082 25.3179H34.9608C34.868 25.3179 34.7986 25.3057 34.7523 25.2829C34.7055 25.2598 34.6708 25.2017 34.648 25.1094L29.9577 12.5321C29.3088 10.7491 28.7704 9.56766 28.3423 8.98864C27.9133 8.40963 27.2705 8.11998 26.414 8.11998C26.3215 8.11998 26.2696 8.06752 26.2575 7.96345C26.2462 7.85909 26.2868 7.8072 26.379 7.8072H26.6049C26.7327 7.8072 27.0046 7.81904 27.4214 7.84189C28.1392 7.84189 28.6488 7.84781 28.95 7.85909C29.2507 7.87122 29.4478 7.87686 29.5409 7.87686H29.9924C30.2237 7.87686 30.6755 7.8653 31.3473 7.84189C32.3666 7.81904 33.0847 7.8072 33.5015 7.8072H34.3702C34.4858 7.8072 34.5439 7.85909 34.5439 7.96345C34.5439 8.06752 34.4858 8.11998 34.3702 8.11998C33.5825 8.11998 33.0847 8.19528 32.8762 8.3456C32.6678 8.49649 32.5747 8.76837 32.5982 9.16209C32.621 9.39393 32.685 9.69514 32.7894 10.0654C32.8934 10.4363 33.05 10.9226 33.2584 11.5247L36.8368 21.2182L40.763 12.1156C40.7859 11.9537 40.8031 11.7974 40.8149 11.6463C40.8265 11.4959 40.8203 11.3163 40.7977 11.1078C40.7743 10.8532 40.7337 10.6101 40.6762 10.3782C40.6181 10.147 40.5425 9.93853 40.4503 9.75267C40.2184 9.22019 39.9057 8.81463 39.5122 8.53682C39.1182 8.25874 38.6551 8.11998 38.1224 8.11998C37.9836 8.11998 37.9139 8.06752 37.9139 7.96345C37.9139 7.85909 37.9715 7.8072 38.0877 7.8072C38.2727 7.8072 38.5448 7.81312 38.9042 7.8244C39.2629 7.83653 39.8476 7.84189 40.6587 7.84189C41.1452 7.8653 41.4693 7.87686 41.6314 7.87686H41.9789H42.4307C42.6391 7.87686 43.056 7.8653 43.6815 7.84189C44.3531 7.81904 44.8218 7.8072 45.0886 7.8072H45.662C45.8007 7.8072 45.8758 7.85909 45.8876 7.96345C45.8989 8.06752 45.8233 8.11998 45.662 8.11998C44.8743 8.11998 44.3815 8.19528 44.1853 8.3456C43.9881 8.49649 43.9247 8.77994 43.994 9.19678C44.0403 9.42862 44.1212 9.72391 44.2374 10.0827C44.3531 10.4422 44.5265 10.9226 44.7583 11.5247L48.5802 21.3573L51.6724 13.8526C52.3902 12.0927 52.5639 10.6966 52.1933 9.66609C51.8227 8.63554 50.9891 8.11998 49.692 8.11998C49.5532 8.11998 49.4836 8.06752 49.4836 7.96345C49.4836 7.85909 49.5411 7.8072 49.6573 7.8072C49.8423 7.8072 50.097 7.81312 50.4219 7.8244C50.7457 7.83653 51.2784 7.84189 52.0199 7.84189C52.4596 7.8653 52.7549 7.87686 52.9058 7.87686H53.2357C53.328 7.87686 53.5254 7.87122 53.8263 7.85909C54.1272 7.84781 54.6372 7.84189 55.3552 7.84189C55.8415 7.81904 56.1545 7.8072 56.2933 7.8072H56.5711C56.687 7.8072 56.7504 7.85909 56.7623 7.96345C56.7736 8.06752 56.7217 8.11998 56.606 8.11998C55.7721 8.11998 55.0306 8.53146 54.3825 9.35331C53.7335 10.1757 52.9232 11.7452 51.9502 14.061L47.4337 25.0748C47.4103 25.1675 47.3697 25.231 47.3122 25.2657C47.2538 25.3007 47.1903 25.3179 47.1209 25.3179H46.8085C46.7154 25.3179 46.646 25.3007 46.5997 25.2657C46.5532 25.231 46.5185 25.1788 46.4957 25.1094L41.2146 11.8722L35.586 25.0748C35.5395 25.1675 35.4992 25.231 35.4645 25.2657C35.4298 25.3007 35.3776 25.3179 35.3082 25.3179Z" fill="#332D2B"/>
<path d="M60.702 9.67624C61.6449 8.85693 62.8119 8.44714 64.2043 8.44714C65.2366 8.44714 66.0728 8.73932 66.7127 9.32257C67.3527 9.90695 67.6728 10.6024 67.6728 11.4105C67.6728 11.6798 67.6389 11.9215 67.5715 12.1345C67.5041 12.348 67.4142 12.5107 67.3019 12.6227C67.2122 12.6901 67.0269 12.7575 66.7466 12.8249C66.4657 12.8923 66.202 12.9374 65.9552 12.9597C65.6859 12.9597 65.3937 12.965 65.0798 12.9763C64.765 12.9879 64.2715 13.0048 63.598 13.0268C62.4529 13.0494 61.5323 13.0719 60.8368 13.0939C60.1408 13.1168 59.4563 13.1278 58.7825 13.1278C59.1192 11.646 59.7592 10.4961 60.702 9.67624ZM73.9469 17.5453C73.9252 17.5391 73.9041 17.5422 73.8835 17.5512C73.8668 17.5585 73.8505 17.5695 73.8344 17.5865C73.7974 17.6254 73.7619 17.69 73.7278 17.7808C73.723 17.794 73.7151 17.8079 73.71 17.8208C73.0052 19.1571 72.1913 20.2218 71.2589 21.0075C69.9003 22.1526 68.2786 22.7251 66.3929 22.7251C64.1251 22.7251 62.251 22.0404 60.7694 20.6708C59.2876 19.3018 58.5467 17.5619 58.5467 15.4515C58.5467 15.0699 58.5636 14.7052 58.5975 14.3569C58.631 14.0091 58.6815 13.6783 58.7489 13.3636H69.2888C69.9623 13.3636 70.4505 13.2795 70.7537 13.1111C71.0569 12.9425 71.2307 12.6342 71.2758 12.1849C71.3652 10.9728 70.877 9.94051 69.8109 9.08707C68.7445 8.2342 67.2458 7.8072 65.3153 7.8072C62.8006 7.8072 60.5559 8.76189 58.5806 10.6696C56.6049 12.5781 55.6169 14.7667 55.6169 17.2362C55.6169 19.6385 56.3917 21.586 57.9409 23.0785C59.4896 24.5719 61.5323 25.3179 64.0695 25.3179C64.9898 25.3179 65.8712 25.1884 66.7127 24.9306C67.5546 24.6729 68.4018 24.2631 69.2553 23.7018C70.4221 22.9161 71.4946 21.8384 72.471 20.4689C72.8461 19.9434 73.1914 19.3926 73.5112 18.8204C73.6011 18.6593 73.688 18.4957 73.7735 18.3313C73.8107 18.2368 73.8736 18.1378 73.9091 18.0422C73.9345 17.9748 73.9534 17.9145 73.9779 17.8462C74.0454 17.6668 74.025 17.5678 73.9469 17.5453Z" fill="#332D2B"/>
<path d="M87.7575 19.4795C87.6021 19.4016 87.4851 19.4403 87.4072 19.5962C86.9142 20.816 86.3499 21.7369 85.7142 22.3596C85.0782 22.9823 84.3971 23.294 83.6706 23.294C82.84 23.294 82.2113 22.9307 81.7832 22.2042C81.3551 21.4777 81.1407 20.4136 81.1407 19.0124V7.80269H81.1438V7.77026H86.5795L87.8836 6.35416H81.1438V1.47722C81.1057 1.47581 81.0533 1.50683 80.985 1.57509L80.8088 1.74487C80.793 1.87997 80.7941 1.9485 80.7698 2.0867C80.2503 5.04355 77.9819 6.75775 75.3531 7.40248C75.1094 7.46227 74.985 7.46566 74.8663 7.46481L74.7577 7.56916C74.732 7.59539 74.7185 7.6408 74.7185 7.70539C74.7185 7.77054 74.732 7.80269 74.7577 7.80269H77.3265V19.713C77.3265 21.6853 77.6246 23.1126 78.2217 23.9943C78.8184 24.8768 79.7788 25.3179 81.1021 25.3179C82.2954 25.3179 83.4824 24.8381 84.6633 23.8778C85.8439 22.9178 86.9142 21.5685 87.8746 19.8298C87.9524 19.6741 87.9132 19.5573 87.7575 19.4795Z" fill="#332D2B"/>
</svg>
